<svg width="16" height="16" viewBox="0 0 16 16" fill="none" xmlns="http://www.w3.org/2000/svg">
<g clip-path="url(#clip0_77_198)">
<path d="M5.50089 7.76562C5.50089 6.38496 6.61983 5.26543 8.00049 5.26543C9.38115 5.26543 10.5007 6.38496 10.5007 7.76562C10.5007 9.14629 9.38115 10.2658 8.00049 10.2658C6.61983 10.2658 5.50089 9.14629 5.50089 7.76562ZM4.14933 7.76562C4.14933 9.89262 5.87349 11.6168 8.00049 11.6168C10.1275 11.6168 11.8516 9.89262 11.8516 7.76562C11.8516 5.63863 10.1275 3.91447 8.00049 3.91447C5.87349 3.91447 4.14933 5.63863 4.14933 7.76562ZM11.1041 3.76177C11.104 3.93977 11.1568 4.1138 11.2556 4.26184C11.3544 4.40988 11.4949 4.52529 11.6594 4.59348C11.8238 4.66166 12.0047 4.67956 12.1793 4.6449C12.3539 4.61024 12.5143 4.52459 12.6403 4.39878C12.7662 4.27296 12.8519 4.11263 12.8867 3.93806C12.9215 3.76349 12.9038 3.58252 12.8357 3.41804C12.7677 3.25356 12.6524 3.11295 12.5044 3.014C12.3565 2.91505 12.1825 2.8622 12.0045 2.86212H12.0041C11.7655 2.86224 11.5367 2.95704 11.368 3.12572C11.1992 3.29441 11.1043 3.52317 11.1041 3.76177ZM4.97049 13.8704C4.23927 13.8371 3.84183 13.7153 3.57771 13.6124C3.22755 13.4761 2.97771 13.3138 2.71503 13.0514C2.45235 12.7891 2.28975 12.5395 2.15403 12.1894C2.05107 11.9254 1.92927 11.5278 1.89603 10.7966C1.85967 10.006 1.85241 9.76855 1.85241 7.76569C1.85241 5.76283 1.86027 5.526 1.89603 4.73479C1.92933 4.00356 2.05203 3.60678 2.15403 3.34201C2.29035 2.99184 2.45271 2.74201 2.71503 2.47933C2.97735 2.21665 3.22695 2.05405 3.57771 1.91833C3.84171 1.81537 4.23927 1.69357 4.97049 1.66033C5.76105 1.62397 5.99853 1.6167 8.00049 1.6167C10.0024 1.6167 10.2402 1.62457 11.0314 1.66033C11.7626 1.69362 12.1594 1.81633 12.4242 1.91833C12.7743 2.05405 13.0242 2.21701 13.2868 2.47933C13.5495 2.74165 13.7115 2.99184 13.8478 3.34201C13.9508 3.606 14.0726 4.00356 14.1058 4.73479C14.1422 5.526 14.1495 5.76283 14.1495 7.76569C14.1495 9.76855 14.1422 10.0054 14.1058 10.7966C14.0725 11.5278 13.9501 11.9252 13.8478 12.1894C13.7115 12.5395 13.5492 12.7894 13.2868 13.0514C13.0245 13.3135 12.7743 13.4761 12.4242 13.6124C12.1602 13.7154 11.7626 13.8372 11.0314 13.8704C10.2408 13.9068 10.0033 13.9141 8.00049 13.9141C5.99763 13.9141 5.76081 13.9068 4.97049 13.8704ZM4.90839 0.311045C4.10997 0.347405 3.56439 0.474005 3.08793 0.659405C2.59449 0.850865 2.17677 1.10773 1.75935 1.52448C1.34193 1.94124 1.08573 2.35962 0.894268 2.85307C0.708868 3.32982 0.582268 3.87511 0.545908 4.67353C0.508948 5.47321 0.500488 5.72887 0.500488 7.76562C0.500488 9.80239 0.508948 10.058 0.545908 10.8577C0.582268 11.6562 0.708868 12.2014 0.894268 12.6782C1.08573 13.1713 1.34199 13.5902 1.75935 14.0068C2.17671 14.4233 2.59449 14.6798 3.08793 14.8718C3.56529 15.0572 4.10997 15.1838 4.90839 15.2202C5.70849 15.2566 5.96373 15.2656 8.00049 15.2656C10.0372 15.2656 10.2929 15.2572 11.0926 15.2202C11.8911 15.1838 12.4363 15.0572 12.913 14.8718C13.4062 14.6798 13.8242 14.4235 14.2416 14.0068C14.659 13.59 14.9147 13.1713 15.1067 12.6782C15.2921 12.2014 15.4193 11.6561 15.4551 10.8577C15.4914 10.0574 15.4999 9.80239 15.4999 7.76562C15.4999 5.72887 15.4914 5.47321 15.4551 4.67353C15.4187 3.87505 15.2921 3.32952 15.1067 2.85307C14.9147 2.35993 14.6584 1.94191 14.2416 1.52448C13.8249 1.10707 13.4062 0.850865 12.9136 0.659405C12.4363 0.474005 11.891 0.346805 11.0932 0.311045C10.2935 0.274685 10.0378 0.265625 8.00109 0.265625C5.96433 0.265625 5.70849 0.274085 4.90839 0.311045Z" fill="url(#paint0_radial_77_198)"/>
<path d="M5.50089 7.76562C5.50089 6.38496 6.61983 5.26543 8.00049 5.26543C9.38115 5.26543 10.5007 6.38496 10.5007 7.76562C10.5007 9.14629 9.38115 10.2658 8.00049 10.2658C6.61983 10.2658 5.50089 9.14629 5.50089 7.76562ZM4.14933 7.76562C4.14933 9.89262 5.87349 11.6168 8.00049 11.6168C10.1275 11.6168 11.8516 9.89262 11.8516 7.76562C11.8516 5.63863 10.1275 3.91447 8.00049 3.91447C5.87349 3.91447 4.14933 5.63863 4.14933 7.76562ZM11.1041 3.76177C11.104 3.93977 11.1568 4.1138 11.2556 4.26184C11.3544 4.40988 11.4949 4.52529 11.6594 4.59348C11.8238 4.66166 12.0047 4.67956 12.1793 4.6449C12.3539 4.61024 12.5143 4.52459 12.6403 4.39878C12.7662 4.27296 12.8519 4.11263 12.8867 3.93806C12.9215 3.76349 12.9038 3.58252 12.8357 3.41804C12.7677 3.25356 12.6524 3.11295 12.5044 3.014C12.3565 2.91505 12.1825 2.8622 12.0045 2.86212H12.0041C11.7655 2.86224 11.5367 2.95704 11.368 3.12572C11.1992 3.29441 11.1043 3.52317 11.1041 3.76177ZM4.97049 13.8704C4.23927 13.8371 3.84183 13.7153 3.57771 13.6124C3.22755 13.4761 2.97771 13.3138 2.71503 13.0514C2.45235 12.7891 2.28975 12.5395 2.15403 12.1894C2.05107 11.9254 1.92927 11.5278 1.89603 10.7966C1.85967 10.006 1.85241 9.76855 1.85241 7.76569C1.85241 5.76283 1.86027 5.526 1.89603 4.73479C1.92933 4.00356 2.05203 3.60678 2.15403 3.34201C2.29035 2.99184 2.45271 2.74201 2.71503 2.47933C2.97735 2.21665 3.22695 2.05405 3.57771 1.91833C3.84171 1.81537 4.23927 1.69357 4.97049 1.66033C5.76105 1.62397 5.99853 1.6167 8.00049 1.6167C10.0024 1.6167 10.2402 1.62457 11.0314 1.66033C11.7626 1.69362 12.1594 1.81633 12.4242 1.91833C12.7743 2.05405 13.0242 2.21701 13.2868 2.47933C13.5495 2.74165 13.7115 2.99184 13.8478 3.34201C13.9508 3.606 14.0726 4.00356 14.1058 4.73479C14.1422 5.526 14.1495 5.76283 14.1495 7.76569C14.1495 9.76855 14.1422 10.0054 14.1058 10.7966C14.0725 11.5278 13.9501 11.9252 13.8478 12.1894C13.7115 12.5395 13.5492 12.7894 13.2868 13.0514C13.0245 13.3135 12.7743 13.4761 12.4242 13.6124C12.1602 13.7154 11.7626 13.8372 11.0314 13.8704C10.2408 13.9068 10.0033 13.9141 8.00049 13.9141C5.99763 13.9141 5.76081 13.9068 4.97049 13.8704ZM4.90839 0.311045C4.10997 0.347405 3.56439 0.474005 3.08793 0.659405C2.59449 0.850865 2.17677 1.10773 1.75935 1.52448C1.34193 1.94124 1.08573 2.35962 0.894268 2.85307C0.708868 3.32982 0.582268 3.87511 0.545908 4.67353C0.508948 5.47321 0.500488 5.72887 0.500488 7.76562C0.500488 9.80239 0.508948 10.058 0.545908 10.8577C0.582268 11.6562 0.708868 12.2014 0.894268 12.6782C1.08573 13.1713 1.34199 13.5902 1.75935 14.0068C2.17671 14.4233 2.59449 14.6798 3.08793 14.8718C3.56529 15.0572 4.10997 15.1838 4.90839 15.2202C5.70849 15.2566 5.96373 15.2656 8.00049 15.2656C10.0372 15.2656 10.2929 15.2572 11.0926 15.2202C11.8911 15.1838 12.4363 15.0572 12.913 14.8718C13.4062 14.6798 13.8242 14.4235 14.2416 14.0068C14.659 13.59 14.9147 13.1713 15.1067 12.6782C15.2921 12.2014 15.4193 11.6561 15.4551 10.8577C15.4914 10.0574 15.4999 9.80239 15.4999 7.76562C15.4999 5.72887 15.4914 5.47321 15.4551 4.67353C15.4187 3.87505 15.2921 3.32952 15.1067 2.85307C14.9147 2.35993 14.6584 1.94191 14.2416 1.52448C13.8249 1.10707 13.4062 0.850865 12.9136 0.659405C12.4363 0.474005 11.891 0.346805 11.0932 0.311045C10.2935 0.274685 10.0378 0.265625 8.00109 0.265625C5.96433 0.265625 5.70849 0.274085 4.90839 0.311045Z" fill="url(#paint1_radial_77_198)"/>
</g>
<defs>
<radialGradient id="paint0_radial_77_198" cx="0" cy="0" r="1" gradientUnits="userSpaceOnUse" gradientTransform="translate(2.49333 15.3365) scale(19.5812 19.5812)">
<stop offset="0.09" stop-color="#FA8F21"/>
<stop offset="0.78" stop-color="#D82D7E"/>
</radialGradient>
<radialGradient id="paint1_radial_77_198" cx="0" cy="0" r="1" gradientUnits="userSpaceOnUse" gradientTransform="translate(9.59733 16.0085) scale(15.4327)">
<stop offset="0.64" stop-color="#8C3AAA" stop-opacity="0"/>
<stop offset="1" stop-color="#8C3AAA"/>
</radialGradient>
<clipPath id="clip0_77_198">
<rect width="15" height="15" fill="white" transform="translate(0.5 0.265625)"/>
</clipPath>
</defs>
</svg>
